<svg width="17" height="17" viewBox="0 0 17 17" fill="none" xmlns="http://www.w3.org/2000/svg">
<path d="M10.2715 2.55891C10.2715 2.55891 10.3577 4.03628 11.6611 5.33892C12.9645 6.64231 14.4411 6.7293 14.4411 6.7293L15.1363 6.03411C15.6893 5.48108 16 4.73101 16 3.94891C16 3.16681 15.6893 2.41674 15.1363 1.86372C14.5833 1.31069 13.8332 1 13.0511 1C12.269 1 11.5189 1.31069 10.9659 1.86372L10.2707 2.55891L8.50085 4.32875M14.4411 6.72855L10.4964 10.6747L8.17088 12.9988L8.05089 13.1195C7.61743 13.5522 7.4007 13.7689 7.16222 13.9549C6.88064 14.1744 6.57614 14.3627 6.25405 14.5166C5.98107 14.6464 5.69084 14.7431 5.10964 14.9366L2.64911 15.757M2.64911 15.757L2.04766 15.958C1.90746 16.005 1.75693 16.012 1.61298 15.9781C1.46904 15.9443 1.33739 15.871 1.23283 15.7664C1.12827 15.6619 1.05495 15.5302 1.0211 15.3863C0.987258 15.2423 0.994233 15.0918 1.04124 14.9516L1.24223 14.3501M2.64911 15.757L1.24223 14.3501M1.24223 14.3501L2.06266 11.8896C2.25614 11.3084 2.35288 11.0182 2.48262 10.7452C2.63711 10.4217 2.82434 10.119 3.04432 9.83703C3.23031 9.59855 3.44704 9.38182 3.87975 8.94911L5.87608 6.95353" stroke="#312651" stroke-width="1.1249" stroke-linecap="round"/>
</svg>
