<svg width="30" height="30" viewBox="0 0 30 30" fill="none" xmlns="http://www.w3.org/2000/svg">
<path d="M29.4797 11.9695H28.2808V11.9077H14.8846V17.8615H23.2967C22.0694 21.3274 18.7717 23.8154 14.8846 23.8154C9.9526 23.8154 5.95385 19.8166 5.95385 14.8846C5.95385 9.9526 9.9526 5.95385 14.8846 5.95385C17.1612 5.95385 19.2324 6.81269 20.8094 8.21556L25.0195 4.00545C22.3612 1.52791 18.8052 0 14.8846 0C6.66459 0 0 6.66459 0 14.8846C0 23.1046 6.66459 29.7692 14.8846 29.7692C23.1046 29.7692 29.7692 23.1046 29.7692 14.8846C29.7692 13.8866 29.6665 12.9124 29.4797 11.9695Z" fill="#FFC107"/>
<path d="M1.71606 7.95657L6.60641 11.543C7.92965 8.26692 11.1343 5.95385 14.8845 5.95385C17.1611 5.95385 19.2323 6.81269 20.8093 8.21556L25.0194 4.00545C22.361 1.52791 18.8051 0 14.8845 0C9.1673 0 4.20924 3.22773 1.71606 7.95657Z" fill="#FF3D00"/>
<path d="M14.8848 29.7692C18.7295 29.7692 22.2229 28.2979 24.8642 25.9052L20.2574 22.0069C18.7131 23.1821 16.8255 23.8175 14.8848 23.8154C11.0133 23.8154 7.72606 21.3468 6.48766 17.9017L1.63379 21.6415C4.09719 26.4619 9.09991 29.7692 14.8848 29.7692Z" fill="#4CAF50"/>
<path d="M29.4796 11.9695H28.2807V11.9077H14.8845V17.8616H23.2966C22.7095 19.5111 21.6521 20.9525 20.2549 22.0077L20.2571 22.0062L24.8639 25.9045C24.5379 26.2007 29.7691 22.3269 29.7691 14.8846C29.7691 13.8866 29.6664 12.9124 29.4796 11.9695Z" fill="#1976D2"/>
</svg>
