<svg width="33" height="34" viewBox="0 0 33 34" fill="none" xmlns="http://www.w3.org/2000/svg">
<path d="M17.3353 4.8445C17.1022 4.6475 16.8061 4.53932 16.5 4.53932C16.1939 4.53932 15.8978 4.6475 15.6647 4.8445L5.61 13.3336C5.46764 13.4539 5.35332 13.6035 5.27497 13.7721C5.19662 13.9406 5.15611 14.1241 5.15625 14.3097V27.5832C5.15625 27.719 5.21057 27.8493 5.30727 27.9453C5.40397 28.0414 5.53512 28.0953 5.67188 28.0953H10.8281C10.9649 28.0953 11.096 28.0414 11.1927 27.9453C11.2894 27.8493 11.3438 27.719 11.3438 27.5832V20.4133C11.3438 19.7342 11.6154 19.0829 12.0989 18.6027C12.5824 18.1225 13.2381 17.8527 13.9219 17.8527H19.0822C19.4208 17.8527 19.7561 17.9189 20.0689 18.0476C20.3816 18.1763 20.6659 18.3649 20.9053 18.6027C21.1447 18.8405 21.3346 19.1227 21.4641 19.4334C21.5937 19.7441 21.6604 20.0771 21.6604 20.4133V27.5832C21.6604 27.719 21.7147 27.8493 21.8114 27.9453C21.9081 28.0414 22.0392 28.0953 22.176 28.0953H27.3281C27.4649 28.0953 27.596 28.0414 27.6927 27.9453C27.7894 27.8493 27.8438 27.719 27.8438 27.5832V14.3087C27.8437 14.1232 27.8032 13.94 27.7248 13.7716C27.6465 13.6032 27.5322 13.4538 27.39 13.3336L17.3353 4.8445ZM14.3292 3.28454C14.9352 2.77288 15.7046 2.49194 16.5 2.49194C17.2954 2.49194 18.0648 2.77288 18.6708 3.28454L28.7255 11.7726C29.0956 12.0851 29.3928 12.4738 29.5967 12.9117C29.8006 13.3496 29.9062 13.8263 29.9062 14.3087V27.5832C29.9062 28.2623 29.6346 28.9136 29.1511 29.3939C28.6676 29.8741 28.0119 30.1439 27.3281 30.1439H22.176C21.4922 30.1439 20.8365 29.8741 20.353 29.3939C19.8695 28.9136 19.5979 28.2623 19.5979 27.5832V20.4133C19.5979 20.2775 19.5436 20.1473 19.4469 20.0512C19.3502 19.9552 19.219 19.9012 19.0822 19.9012H13.9219C13.7851 19.9012 13.654 19.9552 13.5573 20.0512C13.4606 20.1473 13.4062 20.2775 13.4062 20.4133V27.5832C13.4062 28.2623 13.1346 28.9136 12.6511 29.3939C12.1676 29.8741 11.5119 30.1439 10.8281 30.1439H5.67188C4.98811 30.1439 4.33236 29.8741 3.84887 29.3939C3.36537 28.9136 3.09375 28.2623 3.09375 27.5832V14.3087C3.09378 13.8263 3.19939 13.3496 3.40327 12.9117C3.60716 12.4738 3.90444 12.0851 4.27453 11.7726L14.3292 3.28454Z" fill="#30254C"/>
</svg>
