<svg width="21" height="23" viewBox="0 0 21 23" fill="none" xmlns="http://www.w3.org/2000/svg">
<path d="M17.4723 8.91231V8.16998C17.4723 4.09615 14.2882 0.794128 10.365 0.794128C6.44171 0.794128 3.25761 4.09615 3.25761 8.16998V8.91231C3.25888 9.79841 3.006 10.6663 2.52898 11.413L1.36232 13.2294C0.297793 14.8877 1.11066 17.1421 2.96279 17.6665C7.80241 19.037 12.9275 19.037 17.7671 17.6665C19.6193 17.1421 20.4321 14.8877 19.3676 13.2304L18.201 11.4141C17.7236 10.6675 17.4703 9.79957 17.4713 8.91336L17.4723 8.91231Z" stroke="white" stroke-width="1.57941"/>
<path d="M5.62646 18.694C6.31614 20.5346 8.17669 21.8529 10.3647 21.8529C12.5527 21.8529 14.4133 20.5346 15.1029 18.694" stroke="white" stroke-width="1.57941" stroke-linecap="round"/>
</svg>
