<svg width="66" height="87" viewBox="0 0 66 87" fill="none" xmlns="http://www.w3.org/2000/svg">
<path d="M17.0675 4.7521C17.7598 4.7521 18.321 5.284 18.321 5.94013C18.321 6.59627 17.7598 7.12817 17.0675 7.12817C16.3752 7.12817 15.814 6.59627 15.814 5.94013C15.814 5.284 16.3752 4.7521 17.0675 4.7521Z" fill="#FFB2B2"/>
<path d="M17.0675 -6.10217e-05C17.7598 -6.10143e-05 18.321 0.531842 18.321 1.18798C18.321 1.84411 17.7598 2.37602 17.0675 2.37602C16.3752 2.37602 15.814 1.84411 15.814 1.18798C15.814 0.531842 16.3752 -6.10291e-05 17.0675 -6.10217e-05Z" fill="#FFB2B2"/>
<path d="M22.0816 4.7521C22.7739 4.7521 23.3351 5.284 23.3351 5.94013C23.3351 6.59627 22.7739 7.12817 22.0816 7.12817C21.3893 7.12817 20.828 6.59627 20.828 5.94013C20.828 5.284 21.3893 4.7521 22.0816 4.7521Z" fill="#FFB2B2"/>
<path d="M22.0816 -6.09679e-05C22.7739 -6.09605e-05 23.3351 0.531842 23.3351 1.18798C23.3351 1.84411 22.7739 2.37602 22.0816 2.37602C21.3893 2.37602 20.828 1.84411 20.828 1.18798C20.828 0.531842 21.3893 -6.09754e-05 22.0816 -6.09679e-05Z" fill="#FFB2B2"/>
<path d="M27.0956 4.7521C27.7879 4.7521 28.3491 5.284 28.3491 5.94013C28.3491 6.59627 27.7879 7.12817 27.0956 7.12817C26.4033 7.12817 25.8421 6.59627 25.8421 5.94013C25.8421 5.284 26.4033 4.7521 27.0956 4.7521Z" fill="#FFB2B2"/>
<path d="M27.0956 -6.09142e-05C27.7879 -6.09067e-05 28.3491 0.531842 28.3491 1.18798C28.3491 1.84411 27.7879 2.37602 27.0956 2.37602C26.4033 2.37602 25.8421 1.84411 25.8421 1.18798C25.8421 0.531842 26.4033 -6.09216e-05 27.0956 -6.09142e-05Z" fill="#FFB2B2"/>
<path d="M32.1097 4.7521C32.802 4.7521 33.3632 5.284 33.3632 5.94013C33.3632 6.59627 32.802 7.12817 32.1097 7.12817C31.4174 7.12817 30.8562 6.59627 30.8562 5.94013C30.8562 5.284 31.4174 4.7521 32.1097 4.7521Z" fill="#FFB2B2"/>
<path d="M32.1097 -6.08604e-05C32.802 -6.0853e-05 33.3632 0.531842 33.3632 1.18798C33.3632 1.84411 32.802 2.37602 32.1097 2.37602C31.4174 2.37602 30.8562 1.84411 30.8562 1.18798C30.8562 0.531842 31.4174 -6.08678e-05 32.1097 -6.08604e-05Z" fill="#FFB2B2"/>
<path d="M54.4965 69.8016L54.4966 69.8014C57.3423 65.9737 58.8396 61.5566 58.8396 57.0258C58.8396 55.0764 58.5685 53.1407 58.0339 51.273C57.5952 49.7408 58.6367 48.2625 60.2003 47.9004L60.2006 47.9003C61.7504 47.5422 63.4051 48.3668 63.8355 49.87L63.8355 49.8701C64.5009 52.1959 64.8385 54.6032 64.8385 57.0258C64.8385 62.6811 62.9712 68.1742 59.4511 72.9097M54.4965 69.8016L58.9961 72.5715M54.4965 69.8016C53.5357 71.0948 53.9472 72.8294 55.3299 73.6604M54.4965 69.8016L55.6219 73.1744M59.4511 72.9097L58.9961 72.5715M59.4511 72.9097C59.4511 72.9097 59.4511 72.9097 59.4512 72.9096L58.9961 72.5715M59.4511 72.9097C58.8621 73.7024 57.9127 74.1106 56.9717 74.1106C56.4111 74.1106 55.8391 73.9668 55.3299 73.6604M58.9961 72.5715C58.5271 73.2026 57.7565 73.5436 56.9717 73.5436C56.507 73.5436 56.0372 73.4244 55.6219 73.1744M55.3299 73.6604L55.6219 73.1744M55.3299 73.6604C55.3298 73.6603 55.3296 73.6602 55.3295 73.6602L55.6219 73.1744M32.714 62.5894L32.715 62.5902C32.8815 62.7329 33.1007 62.8117 33.3503 62.8029C33.5785 62.7945 33.7766 62.7126 33.9215 62.5839L59.5202 33.9461L59.9429 34.324L59.5202 33.9461C60.5625 32.7801 62.4216 32.6091 63.6952 33.5303C65.0035 34.4758 65.2327 36.2405 64.1574 37.4434L38.4897 66.1579C38.4575 66.194 38.4222 66.232 38.3833 66.2705C37.1356 67.5232 35.4284 68.241 33.5867 68.3078L33.5858 68.3079C33.4938 68.3111 33.4007 68.3129 33.3068 68.3129C31.5663 68.3129 29.9124 67.7231 28.6284 66.6254L32.714 62.5894ZM32.714 62.5894L19.9744 51.7253C18.781 50.7073 16.914 50.7491 15.7776 51.8273C14.6062 52.9382 14.6625 54.7155 15.8912 55.763L28.6278 66.6249L32.714 62.5894ZM46.4541 76.7534L46.4541 76.7534C42.4543 78.9324 37.8488 80.087 33.1358 80.087C18.9052 80.087 7.43193 69.6861 7.43193 57.0258C7.43193 44.3654 18.9052 33.9645 33.1358 33.9645C38.3974 33.9645 43.4502 35.3805 47.7511 38.0534L47.7511 38.0535C49.089 38.8848 50.9321 38.5994 51.884 37.3611L51.8841 37.3609C52.8658 36.083 52.4856 34.3421 51.1152 33.4903L51.1151 33.4903C45.8112 30.1943 39.5933 28.455 33.1358 28.455C24.6871 28.455 16.7308 31.4146 10.7403 36.8025C4.74777 42.1922 1.43303 49.3749 1.43303 57.0258C1.43303 64.6766 4.74777 71.8593 10.7403 77.249C16.7308 82.6369 24.6871 85.5965 33.1358 85.5965C38.9209 85.5965 44.5856 84.1786 49.5174 81.4915C50.9333 80.7203 51.4362 79.0076 50.537 77.6722L50.5369 77.672C49.6643 76.3771 47.8399 75.9986 46.4541 76.7534Z" fill="#FFB2B2" stroke="#FFB2B2" stroke-width="1.13394"/>
</svg>
