<svg width="20" height="20" viewBox="0 0 20 20" fill="none" xmlns="http://www.w3.org/2000/svg">
<path d="M9.99998 2C8.93911 2 7.92169 2.42143 7.17155 3.17157C6.4214 3.92172 5.99998 4.93913 5.99998 6C5.99998 7.06087 6.4214 8.07828 7.17155 8.82843C7.92169 9.57857 8.93911 10 9.99998 10C11.0608 10 12.0783 9.57857 12.8284 8.82843C13.5785 8.07828 14 7.06087 14 6C14 4.93913 13.5785 3.92172 12.8284 3.17157C12.0783 2.42143 11.0608 2 9.99998 2ZM6.99998 6C6.99998 5.20435 7.31605 4.44129 7.87865 3.87868C8.44126 3.31607 9.20433 3 9.99998 3C10.7956 3 11.5587 3.31607 12.1213 3.87868C12.6839 4.44129 13 5.20435 13 6C13 6.79565 12.6839 7.55871 12.1213 8.12132C11.5587 8.68393 10.7956 9 9.99998 9C9.20433 9 8.44126 8.68393 7.87865 8.12132C7.31605 7.55871 6.99998 6.79565 6.99998 6ZM14.865 16.797C13.794 17.48 12.411 17.861 10.903 17.968C10.8277 17.7694 10.7111 17.5891 10.561 17.439L10.121 16.999C11.806 16.983 13.281 16.62 14.327 15.953C15.377 15.283 16 14.31 16 13C16 12.7348 15.8946 12.4804 15.7071 12.2929C15.5195 12.1054 15.2652 12 15 12H8.74398C8.6189 11.6471 8.45026 11.3112 8.24197 11H15C15.5304 11 16.0391 11.2107 16.4142 11.5858C16.7893 11.9609 17 12.4696 17 13C17 14.691 16.167 15.966 14.865 16.797ZM4.49998 17C5.28598 17 6.01198 16.74 6.59598 16.303L9.14598 18.853C9.1924 18.8995 9.24752 18.9364 9.3082 18.9616C9.36888 18.9867 9.43392 18.9997 9.49962 18.9998C9.56532 18.9998 9.63038 18.9869 9.6911 18.9618C9.75181 18.9367 9.80699 18.8999 9.85348 18.8535C9.89996 18.8071 9.93685 18.752 9.96204 18.6913C9.98722 18.6306 10.0002 18.5655 10.0003 18.4999C10.0003 18.4342 9.98741 18.3691 9.96231 18.3084C9.93721 18.2477 9.9004 18.1925 9.85398 18.146L7.30398 15.596C7.77599 14.9648 8.02112 14.1927 7.99968 13.4048C7.97825 12.6169 7.6915 11.8593 7.18587 11.2547C6.68024 10.6501 5.98532 10.2338 5.21365 10.0733C4.44198 9.91283 3.63872 10.0175 2.93395 10.3704C2.22917 10.7233 1.66414 11.3037 1.33034 12.0177C0.996547 12.7318 0.913525 13.5375 1.09472 14.3046C1.27592 15.0717 1.71073 15.7552 2.32874 16.2443C2.94675 16.7335 3.71179 16.9998 4.49998 17ZM4.49998 16C3.83693 16 3.20105 15.7366 2.73221 15.2678C2.26337 14.7989 1.99998 14.163 1.99998 13.5C1.99998 12.837 2.26337 12.2011 2.73221 11.7322C3.20105 11.2634 3.83693 11 4.49998 11C5.16302 11 5.7989 11.2634 6.26774 11.7322C6.73658 12.2011 6.99998 12.837 6.99998 13.5C6.99998 14.163 6.73658 14.7989 6.26774 15.2678C5.7989 15.7366 5.16302 16 4.49998 16Z" fill="black"/>
</svg>
