<svg width="24" height="24" viewBox="0 0 24 24" fill="none" xmlns="http://www.w3.org/2000/svg">
<path d="M11.91 13.9999H19.753C20.3498 13.9999 20.9221 14.2369 21.344 14.6589C21.766 15.0808 22.003 15.6531 22.003 16.2499V17.1549C22.003 17.6953 21.8862 18.2293 21.6607 18.7203C21.4351 19.2114 21.106 19.6478 20.696 19.9999C19.13 21.3449 16.89 22.0019 14 22.0019H13.821C13.9719 21.6983 14.0314 21.3573 13.9921 21.0206C13.9529 20.6838 13.8167 20.3657 13.6 20.1049L13.489 19.9839L11.259 17.7599C11.9192 16.6249 12.1508 15.2906 11.91 13.9999ZM6.50004 10.4999C7.3549 10.4999 8.19207 10.7435 8.91355 11.202C9.63504 11.6605 10.211 12.3151 10.574 13.089C10.937 13.863 11.072 14.7243 10.9633 15.5722C10.8546 16.4201 10.5066 17.2196 9.96004 17.8769L12.783 20.6909C12.9163 20.8247 12.9942 21.0039 13.0011 21.1927C13.008 21.3814 12.9435 21.5659 12.8203 21.7091C12.6972 21.8523 12.5245 21.9438 12.3369 21.9653C12.1492 21.9867 11.9604 21.9366 11.808 21.8249L11.723 21.7529L8.82004 18.8569C8.22564 19.2141 7.5567 19.4292 6.86547 19.4852C6.17424 19.5412 5.47941 19.4367 4.83523 19.1798C4.19105 18.923 3.61496 18.5207 3.15192 18.0044C2.68889 17.4882 2.35144 16.8718 2.16594 16.2036C1.98043 15.5354 1.95188 14.8333 2.08251 14.1522C2.21314 13.4711 2.49942 12.8295 2.919 12.2773C3.33858 11.7251 3.88011 11.2774 4.5013 10.9691C5.1225 10.6608 5.80654 10.5002 6.50004 10.4999ZM6.50004 11.9999C5.7044 11.9999 4.94133 12.316 4.37872 12.8786C3.81612 13.4412 3.50004 14.2042 3.50004 14.9999C3.50004 15.7955 3.81612 16.5586 4.37872 17.1212C4.94133 17.6838 5.7044 17.9999 6.50004 17.9999C7.29569 17.9999 8.05876 17.6838 8.62137 17.1212C9.18397 16.5586 9.50004 15.7955 9.50004 14.9999C9.50004 14.2042 9.18397 13.4412 8.62137 12.8786C8.05876 12.316 7.29569 11.9999 6.50004 11.9999ZM14 2.00488C14.6567 2.00488 15.3068 2.13421 15.9135 2.38548C16.5201 2.63676 17.0713 3.00506 17.5356 3.46935C17.9999 3.93364 18.3682 4.48484 18.6194 5.09147C18.8707 5.69809 19 6.34827 19 7.00488C19 7.66149 18.8707 8.31167 18.6194 8.9183C18.3682 9.52493 17.9999 10.0761 17.5356 10.5404C17.0713 11.0047 16.5201 11.373 15.9135 11.6243C15.3068 11.8756 14.6567 12.0049 14 12.0049C12.674 12.0049 11.4022 11.4781 10.4645 10.5404C9.52683 9.60273 9.00004 8.33097 9.00004 7.00488C9.00004 5.6788 9.52683 4.40703 10.4645 3.46935C11.4022 2.53167 12.674 2.00488 14 2.00488Z" fill="black"/>
</svg>
