<svg width="20" height="20" viewBox="0 0 20 20" fill="none" xmlns="http://www.w3.org/2000/svg">
<path d="M9 2C7.93913 2 6.92172 2.42143 6.17157 3.17157C5.42143 3.92172 5 4.93913 5 6C5 7.06087 5.42143 8.07828 6.17157 8.82843C6.92172 9.57857 7.93913 10 9 10C10.0609 10 11.0783 9.57857 11.8284 8.82843C12.5786 8.07828 13 7.06087 13 6C13 4.93913 12.5786 3.92172 11.8284 3.17157C11.0783 2.42143 10.0609 2 9 2ZM6 6C6 5.20435 6.31607 4.44129 6.87868 3.87868C7.44129 3.31607 8.20435 3 9 3C9.79565 3 10.5587 3.31607 11.1213 3.87868C11.6839 4.44129 12 5.20435 12 6C12 6.79565 11.6839 7.55871 11.1213 8.12132C10.5587 8.68393 9.79565 9 9 9C8.20435 9 7.44129 8.68393 6.87868 8.12132C6.31607 7.55871 6 6.79565 6 6ZM4.009 11C3.7456 10.9988 3.48456 11.0497 3.24087 11.1496C2.99718 11.2496 2.77564 11.3968 2.58896 11.5826C2.40229 11.7684 2.25417 11.9893 2.1531 12.2325C2.05203 12.4758 2 12.7366 2 13C2 14.691 2.833 15.966 4.135 16.797C5.417 17.614 7.145 18 9 18H9.05C9.01658 17.8354 8.99983 17.6679 9 17.5V17C7.265 17 5.743 16.636 4.673 15.953C3.623 15.283 3 14.31 3 13C3 12.447 3.448 12 4.009 12H9.499C9.87505 11.4985 10.4258 11.1566 11.042 11.042L11.05 11H4.009ZM12 11.5V12H11.5C11.1022 12 10.7206 12.158 10.4393 12.4393C10.158 12.7206 10 13.1022 10 13.5V17.5C10 17.8978 10.158 18.2794 10.4393 18.5607C10.7206 18.842 11.1022 19 11.5 19H17.5C17.8978 19 18.2794 18.842 18.5607 18.5607C18.842 18.2794 19 17.8978 19 17.5V13.5C19 13.1022 18.842 12.7206 18.5607 12.4393C18.2794 12.158 17.8978 12 17.5 12H17V11.5C17 11.1022 16.842 10.7206 16.5607 10.4393C16.2794 10.158 15.8978 10 15.5 10H13.5C13.1022 10 12.7206 10.158 12.4393 10.4393C12.158 10.7206 12 11.1022 12 11.5ZM13.5 11H15.5C15.6326 11 15.7598 11.0527 15.8536 11.1464C15.9473 11.2402 16 11.3674 16 11.5V12H13V11.5C13 11.3674 13.0527 11.2402 13.1464 11.1464C13.2402 11.0527 13.3674 11 13.5 11Z" fill="black"/>
</svg>
