<svg width="294" height="154" viewBox="0 0 294 154" fill="none" xmlns="http://www.w3.org/2000/svg">
<circle cx="150" cy="77" r="77" fill="#FFEEE9"/>
<path d="M194.46 35.4806C196.13 39.8275 193.793 42.8042 189.273 45.7415C185.626 48.104 180.981 50.6712 176.059 55.0536C171.23 59.3493 166.522 64.527 162.337 69.6221C158.757 73.9961 155.348 78.5106 152.119 83.155C150.504 85.482 148.246 88.9548 148.246 88.9548C147.435 90.2187 146.319 91.2532 145.003 91.9608C143.686 92.6683 142.213 93.0255 140.722 92.9986C139.231 92.9897 137.768 92.5961 136.471 91.8552C135.174 91.1144 134.086 90.0509 133.311 88.7658C129.415 82.1628 126.411 79.5523 125.031 78.6191C121.337 76.107 117 75.7448 117 69.9016C117 65.2594 120.881 61.4991 125.667 61.4991C129.048 61.6251 132.188 62.9678 134.973 64.8578C136.751 66.0626 138.635 67.6612 140.593 69.7599C143.217 66.1451 145.946 62.609 148.776 59.1564C153.289 53.6636 158.616 47.7693 164.33 42.6821C169.947 37.6816 176.441 33 183.325 30.5273C187.81 28.9129 192.795 31.1297 194.46 35.4806Z" stroke="#FBA38B" stroke-width="1.5" stroke-linecap="round" stroke-linejoin="round"/>
<path d="M114.116 120.362L115.236 119.27C115.488 119.587 115.787 119.863 116.132 120.096C116.487 120.329 116.865 120.507 117.266 120.628C117.677 120.749 118.106 120.81 118.554 120.81C119.04 120.81 119.46 120.745 119.814 120.614C120.178 120.483 120.463 120.297 120.668 120.054C120.874 119.811 120.976 119.531 120.976 119.214C120.976 118.785 120.78 118.444 120.388 118.192C120.006 117.94 119.329 117.739 118.358 117.59C117.453 117.459 116.72 117.273 116.16 117.03C115.6 116.787 115.19 116.479 114.928 116.106C114.676 115.733 114.55 115.294 114.55 114.79C114.55 114.193 114.714 113.67 115.04 113.222C115.376 112.765 115.834 112.41 116.412 112.158C117 111.897 117.672 111.766 118.428 111.766C119.306 111.766 120.08 111.934 120.752 112.27C121.434 112.606 122.017 113.054 122.502 113.614L121.41 114.706C121.046 114.23 120.617 113.857 120.122 113.586C119.637 113.306 119.077 113.166 118.442 113.166C117.78 113.166 117.238 113.306 116.818 113.586C116.398 113.866 116.188 114.239 116.188 114.706C116.188 114.958 116.268 115.173 116.426 115.35C116.585 115.518 116.846 115.663 117.21 115.784C117.584 115.905 118.078 116.013 118.694 116.106C119.618 116.246 120.365 116.447 120.934 116.708C121.513 116.969 121.938 117.301 122.208 117.702C122.479 118.103 122.614 118.584 122.614 119.144C122.614 119.76 122.442 120.301 122.096 120.768C121.751 121.225 121.27 121.585 120.654 121.846C120.038 122.098 119.329 122.224 118.526 122.224C117.584 122.224 116.744 122.056 116.006 121.72C115.269 121.384 114.639 120.931 114.116 120.362ZM130.768 122H129.214V120.656L129.2 120.264V115.014H130.768V122ZM129.312 119.046L129.634 119.312C129.662 119.881 129.559 120.385 129.326 120.824C129.092 121.263 128.761 121.608 128.332 121.86C127.912 122.103 127.417 122.224 126.848 122.224C126.026 122.224 125.368 121.977 124.874 121.482C124.379 120.987 124.132 120.273 124.132 119.34V115.014H125.7V119.186C125.7 119.746 125.84 120.175 126.12 120.474C126.4 120.763 126.782 120.908 127.268 120.908C127.613 120.908 127.93 120.829 128.22 120.67C128.518 120.511 128.766 120.292 128.962 120.012C129.158 119.732 129.274 119.41 129.312 119.046ZM137.988 119.858L138.996 120.838C138.651 121.267 138.226 121.608 137.722 121.86C137.218 122.103 136.64 122.224 135.986 122.224C135.268 122.224 134.624 122.065 134.054 121.748C133.494 121.421 133.051 120.983 132.724 120.432C132.398 119.872 132.234 119.228 132.234 118.5C132.234 117.781 132.398 117.147 132.724 116.596C133.051 116.036 133.499 115.597 134.068 115.28C134.647 114.953 135.3 114.79 136.028 114.79C136.663 114.79 137.228 114.911 137.722 115.154C138.226 115.397 138.651 115.737 138.996 116.176L137.988 117.156C137.783 116.839 137.522 116.587 137.204 116.4C136.896 116.204 136.523 116.106 136.084 116.106C135.655 116.106 135.272 116.209 134.936 116.414C134.6 116.619 134.339 116.904 134.152 117.268C133.966 117.623 133.872 118.033 133.872 118.5C133.872 118.967 133.966 119.382 134.152 119.746C134.339 120.11 134.6 120.395 134.936 120.6C135.272 120.805 135.655 120.908 136.084 120.908C136.523 120.908 136.896 120.81 137.204 120.614C137.522 120.418 137.783 120.166 137.988 119.858ZM145.535 119.858L146.543 120.838C146.198 121.267 145.773 121.608 145.269 121.86C144.765 122.103 144.187 122.224 143.533 122.224C142.815 122.224 142.171 122.065 141.601 121.748C141.041 121.421 140.598 120.983 140.271 120.432C139.945 119.872 139.781 119.228 139.781 118.5C139.781 117.781 139.945 117.147 140.271 116.596C140.598 116.036 141.046 115.597 141.615 115.28C142.194 114.953 142.847 114.79 143.575 114.79C144.21 114.79 144.775 114.911 145.269 115.154C145.773 115.397 146.198 115.737 146.543 116.176L145.535 117.156C145.33 116.839 145.069 116.587 144.751 116.4C144.443 116.204 144.07 116.106 143.631 116.106C143.202 116.106 142.819 116.209 142.483 116.414C142.147 116.619 141.886 116.904 141.699 117.268C141.513 117.623 141.419 118.033 141.419 118.5C141.419 118.967 141.513 119.382 141.699 119.746C141.886 120.11 142.147 120.395 142.483 120.6C142.819 120.805 143.202 120.908 143.631 120.908C144.07 120.908 144.443 120.81 144.751 120.614C145.069 120.418 145.33 120.166 145.535 119.858ZM153.6 119.886L154.496 120.866C154.132 121.286 153.68 121.617 153.138 121.86C152.597 122.103 151.995 122.224 151.332 122.224C150.548 122.224 149.853 122.065 149.246 121.748C148.649 121.431 148.178 120.992 147.832 120.432C147.496 119.872 147.328 119.233 147.328 118.514C147.328 117.786 147.492 117.142 147.818 116.582C148.145 116.022 148.593 115.583 149.162 115.266C149.732 114.949 150.371 114.79 151.08 114.79C151.771 114.79 152.382 114.949 152.914 115.266C153.446 115.574 153.866 116.003 154.174 116.554C154.482 117.095 154.636 117.725 154.636 118.444V118.528H153.082V118.374C153.082 117.907 152.994 117.501 152.816 117.156C152.648 116.801 152.415 116.531 152.116 116.344C151.818 116.148 151.468 116.05 151.066 116.05C150.646 116.05 150.273 116.153 149.946 116.358C149.629 116.554 149.382 116.834 149.204 117.198C149.027 117.553 148.938 117.982 148.938 118.486C148.938 118.99 149.041 119.429 149.246 119.802C149.461 120.175 149.75 120.465 150.114 120.67C150.488 120.866 150.917 120.964 151.402 120.964C152.289 120.964 153.022 120.605 153.6 119.886ZM154.636 119.004H148.42V117.94H154.412L154.636 118.458V119.004ZM155.485 120.936L156.395 119.956C156.712 120.283 157.085 120.539 157.515 120.726C157.953 120.913 158.411 121.006 158.887 121.006C159.372 121.006 159.759 120.917 160.049 120.74C160.338 120.553 160.483 120.315 160.483 120.026C160.483 119.765 160.352 119.564 160.091 119.424C159.839 119.275 159.386 119.158 158.733 119.074C157.706 118.925 156.959 118.691 156.493 118.374C156.035 118.047 155.807 117.599 155.807 117.03C155.807 116.582 155.937 116.19 156.199 115.854C156.46 115.518 156.815 115.257 157.263 115.07C157.711 114.883 158.224 114.79 158.803 114.79C159.475 114.79 160.067 114.902 160.581 115.126C161.103 115.35 161.556 115.653 161.939 116.036L161.029 117.03C160.739 116.713 160.408 116.461 160.035 116.274C159.661 116.087 159.255 115.994 158.817 115.994C158.378 115.994 158.023 116.083 157.753 116.26C157.482 116.428 157.347 116.647 157.347 116.918C157.347 117.142 157.468 117.315 157.711 117.436C157.963 117.548 158.401 117.646 159.027 117.73C160.053 117.879 160.809 118.127 161.295 118.472C161.78 118.808 162.023 119.293 162.023 119.928C162.023 120.385 161.887 120.787 161.617 121.132C161.346 121.477 160.973 121.748 160.497 121.944C160.021 122.131 159.465 122.224 158.831 122.224C158.149 122.224 157.524 122.112 156.955 121.888C156.385 121.655 155.895 121.337 155.485 120.936ZM162.827 120.936L163.737 119.956C164.054 120.283 164.427 120.539 164.857 120.726C165.295 120.913 165.753 121.006 166.229 121.006C166.714 121.006 167.101 120.917 167.391 120.74C167.68 120.553 167.825 120.315 167.825 120.026C167.825 119.765 167.694 119.564 167.433 119.424C167.181 119.275 166.728 119.158 166.075 119.074C165.048 118.925 164.301 118.691 163.835 118.374C163.377 118.047 163.149 117.599 163.149 117.03C163.149 116.582 163.279 116.19 163.541 115.854C163.802 115.518 164.157 115.257 164.605 115.07C165.053 114.883 165.566 114.79 166.145 114.79C166.817 114.79 167.409 114.902 167.923 115.126C168.445 115.35 168.898 115.653 169.281 116.036L168.371 117.03C168.081 116.713 167.75 116.461 167.377 116.274C167.003 116.087 166.597 115.994 166.159 115.994C165.72 115.994 165.365 116.083 165.095 116.26C164.824 116.428 164.689 116.647 164.689 116.918C164.689 117.142 164.81 117.315 165.053 117.436C165.305 117.548 165.743 117.646 166.369 117.73C167.395 117.879 168.151 118.127 168.637 118.472C169.122 118.808 169.365 119.293 169.365 119.928C169.365 120.385 169.229 120.787 168.959 121.132C168.688 121.477 168.315 121.748 167.839 121.944C167.363 122.131 166.807 122.224 166.173 122.224C165.491 122.224 164.866 122.112 164.297 121.888C163.727 121.655 163.237 121.337 162.827 120.936ZM172.7 121.132C172.7 121.412 172.597 121.65 172.392 121.846C172.196 122.042 171.953 122.14 171.664 122.14C171.384 122.14 171.141 122.042 170.936 121.846C170.74 121.65 170.642 121.412 170.642 121.132C170.642 120.852 170.74 120.614 170.936 120.418C171.141 120.222 171.384 120.124 171.664 120.124C171.953 120.124 172.196 120.222 172.392 120.418C172.597 120.614 172.7 120.852 172.7 121.132ZM176.172 121.132C176.172 121.412 176.07 121.65 175.864 121.846C175.668 122.042 175.426 122.14 175.136 122.14C174.856 122.14 174.614 122.042 174.408 121.846C174.212 121.65 174.114 121.412 174.114 121.132C174.114 120.852 174.212 120.614 174.408 120.418C174.614 120.222 174.856 120.124 175.136 120.124C175.426 120.124 175.668 120.222 175.864 120.418C176.07 120.614 176.172 120.852 176.172 121.132ZM179.631 121.132C179.631 121.412 179.528 121.65 179.323 121.846C179.127 122.042 178.889 122.14 178.609 122.14C178.32 122.14 178.072 122.042 177.867 121.846C177.671 121.65 177.573 121.412 177.573 121.132C177.573 120.852 177.671 120.614 177.867 120.418C178.072 120.222 178.32 120.124 178.609 120.124C178.889 120.124 179.127 120.222 179.323 120.418C179.528 120.614 179.631 120.852 179.631 121.132ZM179.015 118.962H178.203C178.184 118.813 178.161 118.565 178.133 118.22C178.105 117.865 178.072 117.459 178.035 117.002C177.998 116.545 177.96 116.073 177.923 115.588C177.886 115.103 177.848 114.645 177.811 114.216C177.783 113.787 177.755 113.432 177.727 113.152C177.708 112.863 177.699 112.69 177.699 112.634C177.699 112.382 177.788 112.177 177.965 112.018C178.142 111.85 178.357 111.766 178.609 111.766C178.861 111.766 179.071 111.85 179.239 112.018C179.416 112.177 179.505 112.382 179.505 112.634C179.505 112.69 179.496 112.863 179.477 113.152C179.458 113.432 179.43 113.787 179.393 114.216C179.365 114.645 179.332 115.103 179.295 115.588C179.258 116.073 179.22 116.545 179.183 117.002C179.146 117.459 179.113 117.865 179.085 118.22C179.057 118.565 179.034 118.813 179.015 118.962Z" fill="#FA7754"/>
</svg>
